<svg xmlns="http://www.w3.org/2000/svg" viewBox="0 0 200 200" width="100px" height="100px">
  <svg stroke="currentColor" fill="currentColor" stroke-width="0" viewBox="0 0 24 24" height="200px" width="200px" xmlns="http://www.w3.org/2000/svg"><path fill="none"  stroke-width="2" d="M8,5 L8,23 M16,5 L16,23 M1,11 L23,11 M1,5 L23,5 M1,17 L23,17 M1,1 L23,1 L23,23 L1,23 L1,1 Z"></path></svg>

  <!-- Foreground arrow centered and larger, in yellow -->
  <g transform="translate(25, 25) scale(10)">
    <path d="M11.251.068a.5.5 0 0 1 .227.58L9.677 6.5H13a.5.5 0 0 1 .364.843l-8 8.5a.5.5 0 0 1-.842-.49L6.323 9.5H3a.5.5 0 0 1-.364-.843l8-8.5a.5.5 0 0 1 .615-.09z" fill="yellow"></path>
  </g>
</svg>